<svg viewBox="0 0 1024 1024" xmlns="http://www.w3.org/2000/svg"><path fill="#A57269" d="M622 15c61 0 110 49 110 110v3a138 138 0 1 1-70 233c8 13 13 24 14 31l3 14c4 24 5 48-9 93a203 203 0 0 1-19 41l-29 48c-23 39-47 86-56 145-16 109 46 192 186 247 15 6 18 13 18 20s-5 9-12 9H436a330 330 0 0 1-62-193 330 330 0 0 1 78-213l14-16 23-26 16-19c32-40 62-87 62-139 0-9-1-18-2-26a138 138 0 1 1-53-247v-4c0-61 49-111 110-111zM153 678c43 0 78 32 82 75v4c26 8 53 19 81 35l3 2c-1 22-1 45 2 67a322 322 0 0 0-32-20 337 337 0 0 0-70-30 83 83 0 0 1-131 3 55 55 0 1 1 0-104c15-19 38-31 64-31zm686-238c8 7 16 15 23 23a110 110 0 1 1 0 208 165 165 0 0 1-129 61 165 165 0 0 1-101-34c8-25 20-49 35-76l31-52c13-22 21-38 26-55 6-19 11-39 13-60a193 193 0 0 0 102-15zm-527-90a193 193 0 0 0 173 107h12l-2 3a324 324 0 0 1-32 45l-11 14-36 42-14 16-6 7a382 382 0 0 0-52 93 165 165 0 0 1-127-61 110 110 0 1 1 0-208c24-29 57-50 94-58z"/></svg>